<svg xmlns="http://www.w3.org/2000/svg" viewBox="0 0 293.43 290.01"><defs><style>.cls-1{fill:#f1ece2;}</style></defs><g id="Camada_2" data-name="Camada 2"><g id="Camada_1-2" data-name="Camada 1"><path class="cls-1" d="M88.37,205.91q8-5.68,8-44.7V113.36q0-39-8-44.71H166.8q1.77,15.69,2,18.83Q155.82,71.4,122.1,71.4H110.33v58.24h2.94q39,0,44.71-8v18.82q-5.68-8-44.71-8h-2.94v70.79H127.2q18.22,0,30-4.41t16.66-11.67l-2.15,18.82H88.37Z"/><path class="cls-1" d="M216.45,191.55c0-17.14-7.44-41.11-57.85-39.05H126.93a3,3,0,0,0,.25.25h-2.83q8,5.69,8,44.71V245.3q0,39-8,44.71h30q-3.72-2.75-5.88-14.22t-2.16-30.49v-6.05C162.65,226.32,216.45,221.35,216.45,191.55Zm-70.14-27.17c3-5.91,7.34-9,12.29-9,23.76,0,44,7.64,44,36.15,0,22.72-39.43,31.51-56.3,44.21Z"/><path class="cls-1" d="M81,264.12l.79-1.55L90,266.78l-6.35,12.45-8.15-4.17.79-1.55,6.49,3.32,2-3.86-5.9-3,.8-1.55,5.89,3,2-3.94Z"/><path class="cls-1" d="M72.86,259.5l-1.61.56a6.43,6.43,0,0,0-2.54-4.19c-1.5-1.06-3.23-1.15-4,0-1,1.4.59,3.12,1.5,4.14,1.62,1.78,2.9,4.07,1.46,6.09s-3.93,2-6.31.28a6.24,6.24,0,0,1-2.72-4.1l1.52-.61A5.25,5.25,0,0,0,62.32,265c1.44,1,3,1,3.75,0,.89-1.25-.35-2.86-1.33-3.9s-3.39-3.85-1.65-6.31c1.39-1.95,4.19-2,6.58-.27A7.78,7.78,0,0,1,72.86,259.5Z"/><path class="cls-1" d="M43.88,245.29a4.32,4.32,0,0,1,6.26,0l2.8,2.7,3.61-3.75,1.34,1.29-9.7,10.06-4.14-4A4.33,4.33,0,0,1,43.88,245.29Zm1.37,1.32a2.56,2.56,0,0,0,0,3.72L48.06,253l3.67-3.81L49,246.53A2.55,2.55,0,0,0,45.25,246.61Z"/><path class="cls-1" d="M37.16,224.88l1.38-1.07,5.65,7.34-11.08,8.53-5.59-7.26,1.38-1.06,4.45,5.78,3.44-2.65-4-5.25,1.38-1.06,4,5.25,3.5-2.69Z"/><path class="cls-1" d="M27.31,219.58a7.12,7.12,0,0,1-9.86-2.94,7.28,7.28,0,0,1-.18-6.85l1.64.92a5.43,5.43,0,0,0,7.48,7.2,5.44,5.44,0,0,0-2-10.18l.1-1.88a7.29,7.29,0,0,1,5.69,3.84A7.12,7.12,0,0,1,27.31,219.58Z"/><path class="cls-1" d="M10.19,200.5l-.68-1.74,13-5,.68,1.74Z"/><path class="cls-1" d="M13.62,175.69l1.63,6.65,3.61.51.47,1.93L4.4,182.57l-.52-2.14,12.22-8.85.48,2Zm-1.51,1.07-6,4.29,7.32,1Z"/><path class="cls-1" d="M12.29,153.8l1.74-.15.76,8.61L.86,163.5.7,161.64l12.19-1.08Z"/><path class="cls-1" d="M0,143.54l.05-1.86,14,.4,0,1.86Z"/><path class="cls-1" d="M12.69,132l-1.24-1.19a6.38,6.38,0,0,0,2.6-4.16c.27-1.82-.43-3.4-1.78-3.6-1.7-.26-2.52,1.93-3,3.21-.85,2.25-2.32,4.42-4.77,4.06s-3.53-2.63-3.1-5.51a6.22,6.22,0,0,1,2.43-4.28L5,121.63a5.23,5.23,0,0,0-2,3.47c-.26,1.74.43,3.16,1.69,3.34,1.52.23,2.39-1.6,2.88-2.94s1.9-4.77,4.89-4.33c2.36.36,3.64,2.85,3.21,5.75A7.82,7.82,0,0,1,12.69,132Z"/><path class="cls-1" d="M9.33,100l-1.28,4.29,11.73,3.5-.53,1.77L7.52,106.1l-1.28,4.29-1.67-.5L7.66,99.54Z"/><path class="cls-1" d="M24.44,86.75,21.58,93l2.51,2.65-.83,1.8-10.33-11,.92-2,15.08.66-.85,1.86Zm-1.85-.09-7.39-.38,5.1,5.35Z"/><path class="cls-1" d="M45.21,58.29l1.36,1.1-5.82,7.2L29.88,57.8l5.75-7.12L37,51.77,32.4,57.45l3.37,2.72L39.94,55l1.36,1.09-4.17,5.16L40.57,64Z"/><path class="cls-1" d="M54.71,32.19,64,42.66l-1.38,1.23-7.4-8.37,1.9,9.3-.78.69-9-3,7.39,8.36-1.4,1.23L44.05,41.61l1.76-1.55,9.09,3L53,33.71Z"/><path class="cls-1" d="M91.39,18.24a6.88,6.88,0,0,1-3.3,9.4L83.24,30,77.11,17.44,82,15.08A6.88,6.88,0,0,1,91.39,18.24Zm-1.71.84a5.13,5.13,0,0,0-7-2.43l-3.15,1.54,4.61,9.43,3.15-1.54A5.12,5.12,0,0,0,89.68,19.08Z"/><path class="cls-1" d="M112,16.69l.51,1.66-8.85,2.72L99.58,7.71,108.33,5l.51,1.67-7,2.14L103.14,13,109.47,11l.51,1.66-6.33,2,1.3,4.22Z"/><path class="cls-1" d="M121,14.37l.77-1.53a6.34,6.34,0,0,0,4.73,1.24c1.83-.28,3.13-1.42,2.92-2.76-.26-1.7-2.59-1.84-4-1.93-2.4-.15-4.92-.91-5.29-3.36s1.46-4.15,4.34-4.59a6.25,6.25,0,0,1,4.81,1L128.69,4a5.27,5.27,0,0,0-3.91-.9c-1.74.27-2.89,1.35-2.7,2.61.24,1.52,2.25,1.8,3.67,1.87s5.12.41,5.58,3.39c.36,2.36-1.63,4.33-4.54,4.77A7.72,7.72,0,0,1,121,14.37Z"/><path class="cls-1" d="M150.78,12.23V14l-9.25,0-.08-14,9.16,0V1.74l-7.29,0,0,4.34,6.62,0V7.82l-6.62,0,0,4.41Z"/><path class="cls-1" d="M174.36,2.56l-2.1,13.82-1.88-.28L164.2,4.16l-1.63,10.75-1.84-.28L162.82.81l1.91.29,6.17,12,1.64-10.79Z"/><path class="cls-1" d="M198.57,9.37l-9.83,11.5-1.84-.6L185.76,5.19l2,.64.88,12.46,8-9.55Z"/><path class="cls-1" d="M204.72,19.45a7.32,7.32,0,0,1,13,6.76,7.32,7.32,0,0,1-13-6.76ZM216,25.32a5.41,5.41,0,1,0-7.32,2.34A5.32,5.32,0,0,0,216,25.32Z"/><path class="cls-1" d="M230.66,41.6l-1,1.4-6.94-5.15L231,26.63l1.49,1.11-7.28,9.82Z"/><path class="cls-1" d="M253.75,46.23l-13.89,6-1.39-1.35,5.62-14,1.48,1.44-4.7,11.56,11.43-5Z"/><path class="cls-1" d="M261,54.87l1.16,1.46-11,8.67-1.15-1.46Z"/><path class="cls-1" d="M276.8,78.53l-12,7.23-.95-1.58,9.55-5.77-9.49.19-.53-.88L268,69.41l-9.56,5.77-1-1.6,12-7.22,1.21,2L266,76.75l9.59-.18Z"/><path class="cls-1" d="M274.08,103.52l-1.63.62-3.3-8.65,13.05-5,3.27,8.55-1.63.62-2.6-6.81-4.05,1.55,2.37,6.19-1.63.62L275.56,95l-4.12,1.58Z"/><path class="cls-1" d="M291.41,122.21l-13.68,2.88-.39-1.87,9-10-10.65,2.24-.38-1.82L289,110.79l.39,1.88-9.06,10L291,120.4Z"/><path class="cls-1" d="M291.69,144.75l-.23-4.47-12.22.61-.09-1.84,12.22-.61-.22-4.48,1.74-.08.54,10.78Z"/><path class="cls-1" d="M286.35,153.78a7.31,7.31,0,1,1-8,6.53A7.12,7.12,0,0,1,286.35,153.78ZM285,166.44a5.41,5.41,0,1,0-4.86-5.95A5.32,5.32,0,0,0,285,166.44Z"/><path class="cls-1" d="M281.35,205l-13-5,.67-1.74,5.75,2.22,2.8-7.25L271.79,191l.67-1.74,13,5-.67,1.74-5.67-2.19-2.8,7.25L282,203.3Z"/><path class="cls-1" d="M268.43,212l7.43,4.38-.94,1.59-7.39-4.36a3.84,3.84,0,1,0-3.9,6.62l7.4,4.36-.94,1.58-7.43-4.38a5.68,5.68,0,0,1,5.77-9.79Z"/><path class="cls-1" d="M253.6,247.36,243,238.28l1.19-1.4,8.49,7.25-3.18-8.95.67-.78,9.33,1.73L251,228.89l1.21-1.42,10.62,9.07-1.52,1.79-9.42-1.76,3.2,9.05Z"/><path class="cls-1" d="M230.56,253.9l5.29-4.35-1.1-3.47,1.53-1.26,4.48,14.41-1.71,1.4-13.27-7.18,1.58-1.3Zm1.62.89,6.48,3.57-2.25-7Z"/><path class="cls-1" d="M214.74,276.66l-6.83-12.2,1.66-.93,12.21,5.63-5.31-9.49,1.62-.91,6.83,12.2-1.68.94L211,266.23l5.33,9.53Z"/><path class="cls-1" d="M201.46,275.4a7.31,7.31,0,1,1-9.35-4.27A7.11,7.11,0,0,1,201.46,275.4Zm-11.94,4.38a5.41,5.41,0,1,0,3.2-7A5.32,5.32,0,0,0,189.52,279.78Z"/></g></g></svg>