<svg xmlns="http://www.w3.org/2000/svg" viewBox="0 0 128.08 221.35"><defs><style>.cls-1{fill:#304269;}</style></defs><g id="Camada_2" data-name="Camada 2"><g id="Camada_1-2" data-name="Camada 1"><path class="cls-1" d="M0,137.26q8-5.69,8-44.71V44.71Q8,5.7,0,0H78.43q1.77,15.69,2,18.82Q67.45,2.75,33.73,2.75H22V61H24.9q39,0,44.71-8V71.77q-5.69-8-44.71-8H22v70.78H38.82q18.24,0,30-4.41t16.66-11.66l-2.15,18.82H0Z"/><path class="cls-1" d="M128.08,122.9c0-17.15-7.44-41.11-57.85-39.05H38.56l.25.24H36q8,5.68,8,44.71v47.85q0,39-8,44.7H66q-3.72-2.74-5.88-14.21t-2.16-30.49V170.6C74.28,157.66,128.08,152.69,128.08,122.9ZM57.94,95.72c3-5.91,7.33-9,12.29-9,23.76,0,44,7.65,44,36.16,0,22.72-39.43,31.51-56.3,44.21Z"/></g></g></svg>