<svg xmlns="http://www.w3.org/2000/svg" viewBox="0 0 963.79 163.98"><defs><style>.cls-1{fill:#304269;}</style></defs><g id="Camada_2" data-name="Camada 2"><g id="Camada_1-2" data-name="Camada 1"><path class="cls-1" d="M0,159.43q9.32-6.59,9.31-51.79V52.22Q9.31,7,0,.43H90.86q2.06,18.17,2.27,21.8Q78.15,3.61,39.07,3.61H25.44V71.07h3.41q45.19,0,51.79-9.31v21.8q-6.58-9.3-51.79-9.31H25.44v82H45q21.12,0,34.75-5.12T99,137.63l-2.5,21.8H0Z"/><path class="cls-1" d="M135.38,109.92q.23,21.12,2.61,33.84t6.71,15.67H109.94q9.32-6.59,9.31-51.79V52.22Q119.25,7,109.94.43h25.44Z"/><path class="cls-1" d="M183.31,109.92q.23,21.12,2.61,33.84t6.7,15.67H157.87q9.31-6.59,9.31-51.79V93.56q0-45-9.31-51.56h25.44Zm-.11-83a11.25,11.25,0,0,1-15.9,0,10.8,10.8,0,0,1-3.3-7.95,10.84,10.84,0,0,1,3.3-8,11.25,11.25,0,0,1,15.9,0,10.87,10.87,0,0,1,3.29,8A10.83,10.83,0,0,1,183.2,26.89Z"/><path class="cls-1" d="M302.34,110.82q0,15.68.68,24.2a73.49,73.49,0,0,0,2.61,15c1.29,4.31,3.3,7.46,6,9.42a40,40,0,0,1-8.29-.79,26.24,26.24,0,0,1-6.24-2,23.39,23.39,0,0,1-4.32-2.73A13,13,0,0,1,290,150.8c-.68-1.05-1.25-2-1.7-2.84a9.21,9.21,0,0,1-.91-2.15l-.23-.69a52.85,52.85,0,0,1-18.06,13.75A53.8,53.8,0,0,1,245.78,164q-18.4,0-30.1-9.09T204,132.4a38.4,38.4,0,0,1,5.57-19.87,57.25,57.25,0,0,1,13.51-15.79,110.26,110.26,0,0,1,19.88-12.27,187.89,187.89,0,0,1,21.46-9.2Q274,72,286,68.57v-.45q0-27.48-22-27.49-17.26,0-30.67,15.22L221.7,42a116.59,116.59,0,0,0,22-2.39A110,110,0,0,1,264,37.23q38.39,0,38.39,30.89ZM286,141.26V71.75Q224,95.6,224,132.4q0,12.27,7.27,20.11a24,24,0,0,0,18.4,7.83A42.15,42.15,0,0,0,270,155.12,47.93,47.93,0,0,0,286,141.26Z"/><path class="cls-1" d="M430,113.09q.67,40.22,9.31,46.34H404.56q8.85-6.35,9.31-47.24V73.57q0-14.08-7.61-21.24A25.75,25.75,0,0,0,388,45.18q-18.17,0-28.16,13.63t-10,36.79v14.32q.22,42.93,9.32,49.51H324.37q9.31-6.59,9.31-51.79V93.56q0-45-9.31-51.56h25.44V71.75a60.15,60.15,0,0,1,8.86-17.94,40.68,40.68,0,0,1,14.2-12.15,39.91,39.91,0,0,1,18.74-4.43,48.36,48.36,0,0,1,18.74,3.29,27.63,27.63,0,0,1,11.92,8.86,38.34,38.34,0,0,1,5.91,11.47A43.12,43.12,0,0,1,430,73.57Z"/><path class="cls-1" d="M548.57,110.82q0,15.68.68,24.2a73.46,73.46,0,0,0,2.62,15c1.28,4.31,3.29,7.46,6,9.42a40.07,40.07,0,0,1-8.3-.79,26.39,26.39,0,0,1-6.24-2,23.39,23.39,0,0,1-4.32-2.73,13.19,13.19,0,0,1-2.84-3.07c-.68-1.05-1.25-2-1.7-2.84a9.21,9.21,0,0,1-.91-2.15l-.23-.69a52.85,52.85,0,0,1-18.06,13.75A53.77,53.77,0,0,1,492,164q-18.4,0-30.1-9.09t-11.7-22.49a38.49,38.49,0,0,1,5.57-19.87,57.25,57.25,0,0,1,13.51-15.79,110.26,110.26,0,0,1,19.88-12.27,188,188,0,0,1,21.47-9.2q9.54-3.28,21.58-6.7v-.45q0-27.48-22-27.49-17.26,0-30.66,15.22L467.93,42a116.78,116.78,0,0,0,22-2.39,109.86,109.86,0,0,1,20.21-2.38q38.38,0,38.39,30.89Zm-16.35,30.44V71.75q-62,23.85-62,60.65,0,12.27,7.27,20.11a24,24,0,0,0,18.4,7.83,42.15,42.15,0,0,0,20.33-5.22A47.87,47.87,0,0,0,532.22,141.26Z"/><path class="cls-1" d="M783.89,109.92q.23,21.12,2.61,33.84t6.7,15.67H758.44q9.31-6.59,9.32-51.79V93.56q0-45-9.32-51.56h25.45Zm-.12-83a11.25,11.25,0,0,1-15.9,0,10.79,10.79,0,0,1-3.29-7.95,10.83,10.83,0,0,1,3.29-8,11.25,11.25,0,0,1,15.9,0,10.84,10.84,0,0,1,3.3,8A10.8,10.8,0,0,1,783.77,26.89Z"/><path class="cls-1" d="M858.4,42v3.18H827.5v82.68q0,12.49,2.84,20.1t7.16,10.68A41.28,41.28,0,0,0,849.31,164a46.64,46.64,0,0,1-18.4-3.3,28,28,0,0,1-11.81-8.74,36.76,36.76,0,0,1-5.91-11.47,43.45,43.45,0,0,1-1.81-12.61V45.18h-9.55a34.65,34.65,0,0,0,10.45-7.27,60.19,60.19,0,0,0,9.43-11.59,54,54,0,0,0,5.79-12V42Z"/><path class="cls-1" d="M954.48,110.82q0,15.68.68,24.2a74.19,74.19,0,0,0,2.61,15c1.29,4.31,3.3,7.46,6,9.42a40,40,0,0,1-8.29-.79,26.24,26.24,0,0,1-6.24-2,23.39,23.39,0,0,1-4.32-2.73,13.19,13.19,0,0,1-2.84-3.07c-.68-1.05-1.25-2-1.7-2.84a9.21,9.21,0,0,1-.91-2.15l-.23-.69a52.85,52.85,0,0,1-18.06,13.75A53.77,53.77,0,0,1,897.92,164q-18.4,0-30.1-9.09t-11.7-22.49a38.49,38.49,0,0,1,5.57-19.87A57.25,57.25,0,0,1,875.2,96.74a110.26,110.26,0,0,1,19.88-12.27,188,188,0,0,1,21.47-9.2q9.54-3.28,21.58-6.7v-.45q0-27.48-22-27.49-17.26,0-30.66,15.22L873.84,42a116.59,116.59,0,0,0,22-2.39,110,110,0,0,1,20.22-2.38q38.38,0,38.39,30.89Zm-16.35,30.44V71.75q-62,23.85-62,60.65,0,12.27,7.27,20.11a24,24,0,0,0,18.4,7.83,42.15,42.15,0,0,0,20.33-5.22A48,48,0,0,0,938.13,141.26Z"/><path class="cls-1" d="M750.22,45.38c0-19.86-8.62-47.63-67-45.24H646.51l.29.29h-3.28q9.32,6.59,9.31,51.79v55.42q0,45.21-9.31,51.8h34.75Q674,156.25,671.46,143T669,107.64v-7C687.89,85.66,750.22,79.9,750.22,45.38ZM669,13.9c3.51-6.85,8.5-10.4,14.24-10.4,27.52,0,51,8.85,51,41.88,0,26.32-45.68,36.5-65.22,51.22Z"/><path class="cls-1" d="M631.19,86.67c-26.69,3-28.55,4.66-44.64,38.85,13.16-34.07,12.65-35.58-12.39-36.4,26.69-3,28.55-4.66,44.63-38.85C605.64,84.34,606.15,85.85,631.19,86.67Z"/></g></g></svg>