<svg xmlns="http://www.w3.org/2000/svg" viewBox="0 0 986.63 218.49"><defs><style>.cls-1{fill:#304269;}</style></defs><g id="Camada_2" data-name="Camada 2"><g id="Camada_1-2" data-name="Camada 1"><path class="cls-1" d="M0,159.43q9.32-6.59,9.31-51.79V52.22Q9.31,7,0,.43H90.86q2.06,18.17,2.27,21.8Q78.15,3.61,39.07,3.61H25.44V71.07h3.41q45.19,0,51.79-9.31v21.8q-6.58-9.3-51.79-9.31H25.44v82H45q21.12,0,34.75-5.11T99,137.63l-2.5,21.8H0Z"/><path class="cls-1" d="M135.38,109.91q.23,21.14,2.61,33.85t6.71,15.67H109.94q9.32-6.59,9.31-51.79V52.22Q119.25,7,109.94.43h25.44Z"/><path class="cls-1" d="M183.31,109.91q.23,21.14,2.61,33.85t6.7,15.67H157.87q9.31-6.59,9.31-51.79V93.56q0-45-9.31-51.56h25.44Zm-.11-83a11.25,11.25,0,0,1-15.9,0,10.82,10.82,0,0,1-3.3-7.95,10.84,10.84,0,0,1,3.3-8,11.23,11.23,0,0,1,15.9,0,10.87,10.87,0,0,1,3.29,8A10.85,10.85,0,0,1,183.2,26.89Z"/><path class="cls-1" d="M302.34,110.82q0,15.68.68,24.2a72.81,72.81,0,0,0,2.61,15c1.29,4.31,3.3,7.46,6,9.42a40,40,0,0,1-8.29-.79,26.48,26.48,0,0,1-6.25-2,23.63,23.63,0,0,1-4.31-2.73A13,13,0,0,1,290,150.8c-.68-1.05-1.25-2-1.7-2.84a9.21,9.21,0,0,1-.91-2.15l-.23-.69a52.85,52.85,0,0,1-18.06,13.75A53.8,53.8,0,0,1,245.78,164q-18.4,0-30.1-9.09T204,132.4a38.4,38.4,0,0,1,5.57-19.87,57.11,57.11,0,0,1,13.51-15.79,110.26,110.26,0,0,1,19.88-12.27,187.89,187.89,0,0,1,21.46-9.2Q273.94,72,286,68.57v-.45q0-27.48-22-27.49-17.26,0-30.67,15.22L221.7,42a116.59,116.59,0,0,0,22-2.39A110.19,110.19,0,0,1,264,37.22q38.39,0,38.39,30.9ZM286,141.26V71.75Q224,95.6,224,132.4q0,12.27,7.27,20.11a24,24,0,0,0,18.4,7.83A42.15,42.15,0,0,0,270,155.12,47.93,47.93,0,0,0,286,141.26Z"/><path class="cls-1" d="M430,113.09q.67,40.22,9.31,46.34H404.56q8.85-6.35,9.31-47.24V73.57q0-14.08-7.61-21.24A25.76,25.76,0,0,0,388,45.18q-18.17,0-28.16,13.63t-10,36.79v14.31q.22,42.94,9.32,49.52H324.37q9.31-6.59,9.31-51.79V93.56q0-45-9.31-51.56h25.44V71.75a60.15,60.15,0,0,1,8.86-17.94,40.73,40.73,0,0,1,14.2-12.16,40,40,0,0,1,18.74-4.43,48.35,48.35,0,0,1,18.74,3.3,27.63,27.63,0,0,1,11.92,8.86,38.34,38.34,0,0,1,5.91,11.47A43.12,43.12,0,0,1,430,73.57Z"/><path class="cls-1" d="M548.57,110.82q0,15.68.68,24.2a73.46,73.46,0,0,0,2.62,15c1.28,4.31,3.29,7.46,6,9.42a40.07,40.07,0,0,1-8.3-.79,26.39,26.39,0,0,1-6.24-2,23.39,23.39,0,0,1-4.32-2.73,13.19,13.19,0,0,1-2.84-3.07c-.68-1.05-1.25-2-1.7-2.84a9.21,9.21,0,0,1-.91-2.15l-.23-.69a52.85,52.85,0,0,1-18.06,13.75A53.77,53.77,0,0,1,492,164q-18.4,0-30.1-9.09t-11.7-22.49a38.49,38.49,0,0,1,5.57-19.87,57.11,57.11,0,0,1,13.51-15.79,110.26,110.26,0,0,1,19.88-12.27,188,188,0,0,1,21.47-9.2q9.54-3.28,21.58-6.7v-.45q0-27.48-22-27.49-17.26,0-30.66,15.22L467.93,42a116.78,116.78,0,0,0,22-2.39,110,110,0,0,1,20.21-2.39q38.38,0,38.39,30.9Zm-16.35,30.44V71.75q-62,23.85-62,60.65,0,12.27,7.27,20.11a24,24,0,0,0,18.4,7.83,42.15,42.15,0,0,0,20.33-5.22A47.87,47.87,0,0,0,532.22,141.26Z"/><path class="cls-1" d="M783.89,109.91q.23,21.14,2.61,33.85t6.7,15.67H758.44q9.31-6.59,9.32-51.79V93.56q0-45-9.32-51.56h25.45Zm-.12-83a11.25,11.25,0,0,1-15.9,0,10.81,10.81,0,0,1-3.29-7.95,10.83,10.83,0,0,1,3.29-8,11.23,11.23,0,0,1,15.9,0,10.84,10.84,0,0,1,3.3,8A10.82,10.82,0,0,1,783.77,26.89Z"/><path class="cls-1" d="M858.4,42v3.18H827.5v82.68q0,12.49,2.84,20.1t7.16,10.68A41.28,41.28,0,0,0,849.31,164a46.64,46.64,0,0,1-18.4-3.3,28,28,0,0,1-11.81-8.74,36.76,36.76,0,0,1-5.91-11.47,43.45,43.45,0,0,1-1.82-12.61V45.18h-9.54a34.65,34.65,0,0,0,10.45-7.27,60.19,60.19,0,0,0,9.43-11.59,54,54,0,0,0,5.79-12V42Z"/><path class="cls-1" d="M954.48,110.82q0,15.68.68,24.2a74.19,74.19,0,0,0,2.61,15c1.29,4.31,3.3,7.46,6,9.42a40,40,0,0,1-8.29-.79,26.24,26.24,0,0,1-6.24-2,23.39,23.39,0,0,1-4.32-2.73,13.19,13.19,0,0,1-2.84-3.07c-.68-1.05-1.25-2-1.7-2.84a9.21,9.21,0,0,1-.91-2.15l-.23-.69a52.85,52.85,0,0,1-18.06,13.75A53.77,53.77,0,0,1,897.92,164q-18.4,0-30.1-9.09t-11.7-22.49a38.4,38.4,0,0,1,5.57-19.87A57.11,57.11,0,0,1,875.2,96.74a110.26,110.26,0,0,1,19.88-12.27,187.21,187.21,0,0,1,21.47-9.2q9.54-3.28,21.58-6.7v-.45q0-27.48-22-27.49-17.26,0-30.67,15.22L873.84,42a116.59,116.59,0,0,0,22-2.39,110.19,110.19,0,0,1,20.22-2.39q38.38,0,38.39,30.9Zm-16.35,30.44V71.75q-62,23.85-62,60.65,0,12.27,7.27,20.11a24,24,0,0,0,18.4,7.83,42.15,42.15,0,0,0,20.33-5.22A48,48,0,0,0,938.13,141.26Z"/><path class="cls-1" d="M750.22,45.38c0-19.86-8.62-47.63-67-45.24H646.51l.29.29h-3.28q9.32,6.59,9.31,51.79v55.42q0,45.21-9.31,51.8h34.75Q674,156.25,671.46,143T669,107.64v-7C687.89,85.66,750.22,79.9,750.22,45.38ZM669,13.9c3.51-6.85,8.5-10.4,14.24-10.4,27.52,0,51,8.85,51,41.88,0,26.32-45.68,36.5-65.22,51.22Z"/><ellipse class="cls-1" cx="602.67" cy="87.89" rx="43.7" ry="24.1" transform="translate(166.14 512.61) rotate(-52.51)"/><path class="cls-1" d="M412.92,212.72a7.92,7.92,0,0,1-4.25-2.62,7.13,7.13,0,0,1-1.52-4.61,7.6,7.6,0,0,1,.32-2.2,20.47,20.47,0,0,1,7.44-11.95,20.07,20.07,0,0,1,12.37-4.19,10.16,10.16,0,0,1,6.5,2,5.22,5.22,0,0,1,2.3,4.4,4.7,4.7,0,0,1-.52,2.31,2.49,2.49,0,0,1-2.2,1.46,1.94,1.94,0,0,1-1.37-.62,4,4,0,0,1-.73-1.89,3.8,3.8,0,0,0-.52-2,3,3,0,0,0-1.89-.74,12.63,12.63,0,0,0-1.89-.21,12,12,0,0,0-5,1.16q-7,2.82-9.33,10.79a5.51,5.51,0,0,0-.31,1.57,2.19,2.19,0,0,0,.68,1.68,5.47,5.47,0,0,0,2.26,1.05,14.82,14.82,0,0,0,2.14.31c.81.07,1.35.11,1.63.11a116.34,116.34,0,0,0,17.19-2.73q9.84-2.3,25.57-7.75c2.65-1,4.65-1.68,6-2.1l7.34-2.51.42-.21a1.14,1.14,0,0,1,.52-.11,1.47,1.47,0,0,1,.63-.1,2.35,2.35,0,0,1,2.2,1.46,1.9,1.9,0,0,1,.32,1.16,2.13,2.13,0,0,1-1.05,1.78,9,9,0,0,1-2.1,1.15,14.54,14.54,0,0,0-2.09.74c-3,.9-5.8,1.85-8.39,2.83q-9.86,3.45-16.77,5.66a123.33,123.33,0,0,1-14,3.56,114.38,114.38,0,0,1-14.57,2.2A18.45,18.45,0,0,1,412.92,212.72Z"/><path class="cls-1" d="M473.39,208c-2.44-1.25-3.67-3-3.67-5.34a7,7,0,0,1,.84-3.14,16.86,16.86,0,0,1,6.61-7,34.84,34.84,0,0,1,5.66-2.72,5.56,5.56,0,0,1,2-.53c1,0,1.88.91,2.51,2.73a6.06,6.06,0,0,1,2.83-1.26,4.62,4.62,0,0,1,2.52,1,6.54,6.54,0,0,1,3.25,5.55,5.54,5.54,0,0,1-.11,1.26,6.15,6.15,0,0,0,2.62.42A53.48,53.48,0,0,0,517,195.64l3.15-1a38.37,38.37,0,0,0,4-1.36L525,193a5.76,5.76,0,0,1,1.15-.21,2.22,2.22,0,0,1,2.2,1.36,3.31,3.31,0,0,1,.21.94,2.74,2.74,0,0,1-.47,1.47,3.13,3.13,0,0,1-1.31,1.15l-.73.32q-1.47.42-4.41,1.47c-3.56,1.18-6.3,2.06-8.22,2.62a40.77,40.77,0,0,1-6.13,1.25l-3.52.42a43.43,43.43,0,0,1-5.08.32,23.49,23.49,0,0,1-4.61-.42h-.42a2.9,2.9,0,0,0-1.89,1A17.22,17.22,0,0,1,476.22,209,16.09,16.09,0,0,1,473.39,208Zm6.29-3.66a13.14,13.14,0,0,0,4.51-.84,7.86,7.86,0,0,0,3.88-2.52,8.52,8.52,0,0,1-1.79-4.92,9,9,0,0,1,.63-3.15c-3.56,1.75-6.08,3-7.54,3.78a11.86,11.86,0,0,0-4.09,4.4,4.39,4.39,0,0,0-.53,1.36c0,.56.53,1,1.58,1.36l.94.32A22.12,22.12,0,0,0,479.68,204.34Z"/><path class="cls-1" d="M551.58,210.73a6.71,6.71,0,0,1-3-2.36,6,6,0,0,1-1-3.51,18.58,18.58,0,0,1,.42-3.72q.42-2,.63-2.88c.07-.35.16-.74.26-1.16s.19-.83.26-1.25v-.53c0-1-.63-1.43-1.88-1.15l-2.31.84a38.17,38.17,0,0,0-9.43,5.87c-2.73,2.23-5.35,4.44-7.86,6.6l-2.52,2.1a13.13,13.13,0,0,0-1,.84,2.39,2.39,0,0,1-1.57.62,1.62,1.62,0,0,1-.94-.21,2.38,2.38,0,0,1-1.21-1.31,6.28,6.28,0,0,1-.31-1.62c0-.56-.05-.91-.05-1.05v-.21a4.75,4.75,0,0,1,.42-1.57l6-14.25a6.85,6.85,0,0,1,.84-1.58,2.06,2.06,0,0,1,2.83-.62,2,2,0,0,1,1.15,2,3.14,3.14,0,0,1-.31,1.15,8.22,8.22,0,0,0-.42,1.15q-2.31,5.25-3.36,7.86l.42.32,2.41-2.1a62.27,62.27,0,0,1,12.89-8.59,28.64,28.64,0,0,1,2.83-1.1,7.8,7.8,0,0,1,2.42-.37,6.35,6.35,0,0,1,4.34,1.52,5.29,5.29,0,0,1,1.84,3.93,29.52,29.52,0,0,1-.42,4.09,13.35,13.35,0,0,1-.52,2.41l-.63,2.51a2.71,2.71,0,0,0-.11.84,2.14,2.14,0,0,0,2,2.2,15.49,15.49,0,0,0,3,.32,35.07,35.07,0,0,0,13.63-3.25,115,115,0,0,0,17.29-9.43,8.58,8.58,0,0,1,1.26-.74,4.75,4.75,0,0,1,1.57-.42,2.39,2.39,0,0,1,2.2,1.26,2.61,2.61,0,0,1,.32,1.15,2.73,2.73,0,0,1-1.47,2.31,109.55,109.55,0,0,1-14.15,8.17q-4.82,2.31-7.65,3.46a39.75,39.75,0,0,1-6,1.89,38.66,38.66,0,0,1-6.6.84,22,22,0,0,1-2.51-.21A12,12,0,0,1,551.58,210.73Z"/><path class="cls-1" d="M586.9,215.76a4.17,4.17,0,0,1-.42-1.89,5.17,5.17,0,0,1,1.26-3.25,9.37,9.37,0,0,1,2.35-2.2c.88-.55,2-1.25,3.51-2.09l2.21-1.05-2.31-3c-1.61-2.1-2.59-3.42-2.93-4a6.54,6.54,0,0,1-1.16-3.57,5.63,5.63,0,0,1,1.05-3.35,6.56,6.56,0,0,1,5.87-3.35,13.21,13.21,0,0,1,4.93,1.25,5.89,5.89,0,0,1,1.88,1.89,1.7,1.7,0,0,1,.32,1.05,2.13,2.13,0,0,1-.74,1.47,2.19,2.19,0,0,1-1.57.73,2.12,2.12,0,0,1-1-.31,2.2,2.2,0,0,1-.47-.37,1.4,1.4,0,0,0-.58-.37,15.34,15.34,0,0,0-2.62-.52,2,2,0,0,0-1.46.52,1.72,1.72,0,0,0-.53,1.26,3.45,3.45,0,0,0,.21,1l.42.73,5.66,7q5.65-1.87,8.6-2.72,4-1.26,8.28-2.67a70.42,70.42,0,0,0,7.65-3c1.25-.56,2.36-1,3.3-1.36s1.73-.63,2.36-.84a9.51,9.51,0,0,1,1.57-.42,2.88,2.88,0,0,1,1.57.47,2.66,2.66,0,0,1,1.05,1.21,1.79,1.79,0,0,1,.1.73,2.32,2.32,0,0,1-1.15,2.09,6.93,6.93,0,0,1-1.47.74,231.91,231.91,0,0,1-27.67,9.75l-1.88.73v1q.32,4.82-4.3,7.54a12.63,12.63,0,0,1-6.5,1.79Q588,218.49,586.9,215.76Zm9.06-3.41a4,4,0,0,0,1.63-2.25l-4.72,2.62.11.42A6.25,6.25,0,0,0,596,212.35Z"/><path class="cls-1" d="M658.9,212.51a8.14,8.14,0,0,1-6.18-2.3,6.5,6.5,0,0,1-1.68-5.77l.31-2-.31-.21-1.36,1.36a39.71,39.71,0,0,1-7.76,6.4,10.08,10.08,0,0,1-5.24,1.67,7.57,7.57,0,0,1-5.55-2.15,6.85,6.85,0,0,1-2.21-5.08,12.55,12.55,0,0,1,.21-1.78c.42-1.68,1-3.44,1.63-5.29s1.1-3.06,1.31-3.62l.84-2.1a22.08,22.08,0,0,1,1-2.62,2.44,2.44,0,0,1,2.1-1.46,2.08,2.08,0,0,1,1.84.84,2.49,2.49,0,0,1,.26,2.09,11.56,11.56,0,0,1-.63,2.1l-3,8.7a5.78,5.78,0,0,0-.63,2.62,2.82,2.82,0,0,0,.68,2,2.38,2.38,0,0,0,1.84.73,5.53,5.53,0,0,0,1.93-.42,5.11,5.11,0,0,0,1.84-1.15c2-1.61,4.09-3.49,6.39-5.66l1.78-1.89c.91-1,1.47-1.67,1.68-1.88q2.1-2.1,6.5-6.08a2.4,2.4,0,0,1,1.36-.53,2.61,2.61,0,0,1,1.15.32,2,2,0,0,1,1.16,1.89,4.85,4.85,0,0,1-.63,2L658.27,197c-.91,2.59-1.64,5-2.2,7.13l-.21,1.25c0,1.4.87,2.1,2.62,2.1a12.16,12.16,0,0,0,3.77-.73,68.15,68.15,0,0,0,17.51-8.6l6.18-4.08a5.44,5.44,0,0,1,2-.95,1.47,1.47,0,0,1,.63-.1,2.35,2.35,0,0,1,2.2,1.46,2.64,2.64,0,0,1,.21,1.16,2.3,2.3,0,0,1-1.05,2l-2.41,1.57q-6.39,4.41-11.32,7.18a58.52,58.52,0,0,1-10.27,4.56,31.43,31.43,0,0,1-5.55,1.47A8,8,0,0,1,658.9,212.51Z"/><path class="cls-1" d="M696.32,213.87c-.35,0-.79,0-1.31-.05a16.15,16.15,0,0,1-1.94-.26,9.86,9.86,0,0,1-8.39-10.17,18.26,18.26,0,0,1,.63-4.82c.42-1.53,1-3.32,1.78-5.34l8.07-19.6,4.72-11.53a13.34,13.34,0,0,1,.84-1.78,2.39,2.39,0,0,1,1.88-1,3.44,3.44,0,0,1,.84.21,2.16,2.16,0,0,1,1.37,2.09,9.22,9.22,0,0,1-.53,2l-11.42,28.82c-.84,2.16-1.58,4.3-2.2,6.39a19.09,19.09,0,0,0-.63,5q0,4.2,4.29,4.72a17.36,17.36,0,0,0,2.31.21,27,27,0,0,0,6.18-.94A68,68,0,0,0,720.32,200q5.13-3.15,10.69-6.29a9.41,9.41,0,0,1,2.2-.94,1.45,1.45,0,0,1,.63-.11,2.26,2.26,0,0,1,2,1.16,2.72,2.72,0,0,1,.31,1.25,2.79,2.79,0,0,1-.63,1.68l-1.25.94q-9.85,5.88-14.78,8.7A59,59,0,0,1,702.6,213c-.9.21-2,.4-3.24.57s-2.24.3-2.94.37A.1.1,0,0,0,696.32,213.87Z"/><path class="cls-1" d="M743.27,210.42a24.32,24.32,0,0,1-4.72-.53,1.15,1.15,0,0,1-.52-.1,12.73,12.73,0,0,1-5.82-3.57,8.22,8.22,0,0,1-1.83-5.45,14.65,14.65,0,0,1,.42-3.56,26.45,26.45,0,0,1,1.46-4.51c.7-1.67,1.16-2.79,1.37-3.35l1.46-3.67a21.92,21.92,0,0,1-2.2-.63,2.27,2.27,0,0,1-1.78-2.2A2.17,2.17,0,0,1,732,181a2.84,2.84,0,0,1,2.15-.42l3.15.53c.9-2.87,1.78-5.45,2.62-7.76.21-.69.48-1.5.83-2.41a2.42,2.42,0,0,1,2.1-1.46,2.1,2.1,0,0,1,1.63.62,2.27,2.27,0,0,1,.57,1.58,3.18,3.18,0,0,1-.1.94l-2.2,7.13-.21,1.15h4c1.4,0,2.23.52,2.51,1.57a1.45,1.45,0,0,1,.11.63,2.3,2.3,0,0,1-1.36,2.1,7.75,7.75,0,0,1-2.73.63,23,23,0,0,1-2.57.05c-.73,0-1.38-.05-1.94-.05l-.73,1.46c-1.54,3.78-2.65,6.64-3.35,8.6a14.7,14.7,0,0,0-1.05,4.61q0,3,3.25,4.09a13.19,13.19,0,0,0,4.4.73,25.4,25.4,0,0,0,3.88-.42,79.36,79.36,0,0,0,27.14-10.69,7.88,7.88,0,0,1,1.47-.84,6.31,6.31,0,0,1,1.05-.21,2.53,2.53,0,0,1,2.51,2.52,2.57,2.57,0,0,1-.94,2l-1.26.84a83.86,83.86,0,0,1-30,11.63A22.3,22.3,0,0,1,743.27,210.42Z"/><path class="cls-1" d="M773.35,208q-3.68-1.87-3.67-5.34a7,7,0,0,1,.84-3.14,16.9,16.9,0,0,1,6.6-7,35.24,35.24,0,0,1,5.66-2.72,5.61,5.61,0,0,1,2-.53q1.58,0,2.52,2.73a6.06,6.06,0,0,1,2.83-1.26,4.6,4.6,0,0,1,2.51,1,6.52,6.52,0,0,1,3.25,5.55,5.66,5.66,0,0,1-.1,1.26,6.15,6.15,0,0,0,2.62.42A53.48,53.48,0,0,0,817,195.64l3.14-1a37.78,37.78,0,0,0,4-1.36l.83-.21a5.82,5.82,0,0,1,1.16-.21,2.22,2.22,0,0,1,2.2,1.36,3.31,3.31,0,0,1,.21.94,2.74,2.74,0,0,1-.47,1.47,3.25,3.25,0,0,1-1.31,1.15l-.74.32c-1,.28-2.44.77-4.4,1.47-3.56,1.18-6.31,2.06-8.23,2.62a40.27,40.27,0,0,1-6.13,1.25l-3.51.42a43.56,43.56,0,0,1-5.08.32,23.42,23.42,0,0,1-4.61-.42h-.42a2.9,2.9,0,0,0-1.89,1A17.22,17.22,0,0,1,776.18,209,15.81,15.81,0,0,1,773.35,208Zm6.29-3.66a13.08,13.08,0,0,0,4.5-.84A7.81,7.81,0,0,0,788,201a8.5,8.5,0,0,1-1.78-4.92,9,9,0,0,1,.63-3.15q-5.34,2.63-7.55,3.78a11.76,11.76,0,0,0-4.08,4.4,4.39,4.39,0,0,0-.53,1.36c0,.56.53,1,1.57,1.36l1,.32A21.92,21.92,0,0,0,779.64,204.34Z"/><path class="cls-1" d="M821.25,211.67a2.55,2.55,0,0,1-1.37-.63,1.89,1.89,0,0,1-.84-1.57,3.44,3.44,0,0,1,.21-.84l4.09-11.11q1.47-3.66,2.62-6.39a6.93,6.93,0,0,1,.74-1.47,2,2,0,0,1,1.78-1.15,3.44,3.44,0,0,1,.84.21,1.8,1.8,0,0,1,1.36,1.89,5.71,5.71,0,0,1-.37,2c-.24.67-.4,1.07-.47,1.21l-.94,2.51a.41.41,0,0,0,.05.21.83.83,0,0,1,0,.31l1.68-1.57q3.77-3.76,5.76-5.45a4,4,0,0,1,2.73-1.15,4.22,4.22,0,0,1,2.93,1.47,20,20,0,0,0,1.36,1.57c2.45,2.24,5,3.21,7.55,2.93q3-.31,8.91-1.15c.63-.07,1.26-.16,1.89-.26s1.29-.19,2-.26a4.76,4.76,0,0,1,2,0,2.13,2.13,0,0,1,1.68,1.88l.1.53a2,2,0,0,1-.94,1.78,3.56,3.56,0,0,1-1.47.73l-4.72.63q-4.71.74-9.43,1.26-5.44.53-10.9-4.19l-1.05-1h-.31a8.23,8.23,0,0,0-1.47,1.15l-10.9,11.11c-.35.42-.7.88-1,1.36s-.69.95-1.05,1.37a10.18,10.18,0,0,1-2.2,1.78A1.34,1.34,0,0,1,821.25,211.67Z"/><path class="cls-1" d="M883.34,214.71a12.57,12.57,0,0,1-3.51-1.15,8.46,8.46,0,0,1-3.25-2.73,6.53,6.53,0,0,1-1.15-3.77,7.17,7.17,0,0,1,.32-2.09c.28-1.26.9-3.32,1.88-6.19q1.05-3.24,2.73-7.44l.31-.84a2.22,2.22,0,0,1,2.2-1.36,2.11,2.11,0,0,1,1.52.68,2.21,2.21,0,0,1,.68,1.62,9,9,0,0,1-.42,2c-1.6,4.4-2.62,7.19-3,8.38-.28.84-.66,2.24-1.15,4.19a2.75,2.75,0,0,0-.1.84,2.23,2.23,0,0,0,1.67,2.2,11.8,11.8,0,0,0,4.2.84,36.93,36.93,0,0,0,12.68-2.2,89.55,89.55,0,0,0,14.36-6.29q5.13-2.93,15.61-8.38a4,4,0,0,1,1.58-.53,2,2,0,0,1,1.67.84,2.14,2.14,0,0,1,.53,1.57,2.9,2.9,0,0,1-.74,2,6.44,6.44,0,0,1-1.88,1.26l-2.15,1.21c-.81.45-1.7.93-2.68,1.41q-10.58,5.78-13.31,7.13a64.74,64.74,0,0,1-19.6,6.71c-.9.14-2.44.28-4.61.42A26.14,26.14,0,0,1,883.34,214.71Zm2.57-33.38a2.39,2.39,0,0,1-.21-1.94,11.18,11.18,0,0,1,1.78-3.14,2.49,2.49,0,0,1,1.89-.95,2,2,0,0,1,1.36.58,2.85,2.85,0,0,1,.84,1.52,17.81,17.81,0,0,1,.32,1.89c-.07.21-.18.56-.32,1.05a5,5,0,0,1-.63,1.36,3,3,0,0,1-2.41,1.36,2.58,2.58,0,0,1-1.15-.31A3,3,0,0,1,885.91,181.33Z"/><path class="cls-1" d="M950.58,214.82q-1.89-.31-2.31-.42a7.39,7.39,0,0,1-2-.63q-5.24-2.21-4.51-7.86a6.56,6.56,0,0,1,.16-1.26c.11-.49.19-.91.26-1.26l-2,1.47-2.41,1.78a48,48,0,0,1-4.61,3.36c-3,2.09-5.73,3.14-8.18,3.14a5.56,5.56,0,0,1-4-1.57,5.45,5.45,0,0,1-1.62-4.09,11.14,11.14,0,0,1,1.67-5.76,24.79,24.79,0,0,1,13.63-11.95,17.74,17.74,0,0,1,5.66-1,16.88,16.88,0,0,1,7.65,1.79,3.69,3.69,0,0,0,1.67.42,7.27,7.27,0,0,0,2.73-.74l.21-.1a3.59,3.59,0,0,1,2-.84,2.18,2.18,0,0,1,1.78.94,2.12,2.12,0,0,1,.42,1.36,3.07,3.07,0,0,1-1.26,2.62,16,16,0,0,0-2.62,2.42c-2,2.37-3.63,4.61-5,6.7a9.74,9.74,0,0,0-1.15,3.25,2.75,2.75,0,0,0-.1.84c0,.77.48,1.26,1.46,1.47a18.34,18.34,0,0,0,5.35.94q5.24,0,11.84-.52c2.66-.21,5-.44,6.92-.68s3.56-.44,4.82-.58l5.87-.63h1.47a2.21,2.21,0,0,1,2.2,1.78l.1.53a2.58,2.58,0,0,1-1.36,2,12.49,12.49,0,0,1-3.35.94q-5.14.84-8.07,1.05-10.07.84-19.71,1.26A15.66,15.66,0,0,1,950.58,214.82ZM925.48,208a4,4,0,0,0,1.31-.47,39.86,39.86,0,0,0,4.82-2.72l6.6-5c2.24-1.74,4.4-3.38,6.5-4.92a2.44,2.44,0,0,0,.42-.63,5.63,5.63,0,0,0-3-1.26,6.34,6.34,0,0,0-1.78.32,22.62,22.62,0,0,0-15.72,12.47,4.85,4.85,0,0,0-.37,1.1c-.11.45-.19.79-.26,1l.42.41C924.59,208.15,925,208.06,925.48,208Z"/></g></g></svg>